<svg width="27" height="40" viewBox="0 0 27 40" fill="none" xmlns="http://www.w3.org/2000/svg">
<path d="M13.8489 12.4168C13.648 12.7428 13.5238 13.3897 13.4741 14.3564C13.4337 15.7199 13.2671 16.7282 12.9752 17.3814L13.0787 17.5126C12.941 17.5418 12.8758 17.9084 12.8861 18.6126L12.9896 18.7439C13.0197 18.8741 13.0155 19.1595 12.9741 19.6012C12.6988 20.172 12.5839 20.5543 12.6294 20.7491L12.4917 20.7782C12.2961 20.8199 12.1108 20.8814 11.9369 20.9626L11.559 20.9741C10.913 21.1553 10.5093 21.2626 10.3489 21.297C10.2692 20.9605 10.4534 20.2564 10.8996 19.1834C11.9638 15.9657 12.5176 14.347 12.5611 14.3262C12.9358 12.9501 13.3582 11.7459 13.8271 10.7137L13.8965 10.6991C13.9193 10.797 13.8696 11.3303 13.7495 12.3012L13.8489 12.4168ZM25.6335 19.7834C25.5228 19.6241 25.382 19.5626 25.2091 19.5991C24.8923 19.3345 24.5839 19.2064 24.2836 19.2126C23.5818 19.3605 23.1066 19.2949 22.8602 19.0168L22.1522 19.1647L22.0124 19.2626L21.9969 19.197C21.8582 19.2262 21.6967 19.2834 21.5114 19.3678C20.9834 19.3866 20.6625 19.4095 20.5476 19.4334C20.4658 19.4959 20.3965 19.5334 20.3385 19.5449C20.3064 19.4605 20.1232 19.4262 19.7878 19.4387L16.1501 20.2022C16.4296 17.0939 16.6304 15.0532 16.7516 14.0834C16.7122 13.6126 16.765 13.198 16.9099 12.8376C16.9689 11.2991 17.2412 9.46157 17.7257 7.32199L17.6222 7.1897L17.7298 7.03032C18.2153 3.71886 18.413 1.87303 18.323 1.49386L16.3944 0.389696C15.8147 0.0334457 15.2081 -0.0790544 14.5756 0.0542789L14.4203 0.0865706C13.587 1.36574 13.1304 2.29907 13.0487 2.87407C12.9565 2.89282 12.589 3.68761 11.9451 5.25636C11.9079 5.66365 11.6211 6.3897 11.0828 7.43553C11.0259 7.8574 10.8054 8.6147 10.4244 9.70845C9.39648 11.8022 8.55487 14.1189 7.89959 16.6584C7.2619 18.1012 6.64493 19.9897 6.04865 22.323C6.10041 22.5397 4.69358 23.0064 1.83023 23.7209L0.0538302 23.872C0.0641823 23.9147 0.0465838 23.9418 0 23.9512C0.015528 24.0168 0.643893 24.5272 1.88509 25.4855C1.93168 25.6803 2.84369 25.7053 4.62112 25.5595L4.91511 25.498C5.00725 25.4782 5.06315 25.5116 5.08385 25.5991L4.7588 26.2772C4.56936 27.8303 4.28675 29.3189 3.91097 30.7407L4.04555 31.0032C4.0559 31.2512 4.06522 31.3918 4.07246 31.4241C4.11491 31.5522 4.72257 31.8741 5.89545 32.3907C6.5176 32.2605 7.17184 31.1949 7.85921 29.1949C8.91822 25.8084 9.24948 24.7928 9.45652 24.5449L10.0259 24.4251C10.2909 24.3699 10.6242 24.272 11.0259 24.1303C11.1304 24.1647 11.206 24.1772 11.2516 24.1678C11.4348 24.072 11.6242 24.0043 11.8199 23.9637L12.1822 23.8866L12.3395 23.9397C12.4213 24.3887 12.2453 24.9168 12.1418 24.9387C12.1522 24.9824 12.1894 25.0418 12.2567 25.1199C12.0559 25.7532 11.9783 26.2772 12.0228 28.2032C12.0331 28.247 12.0714 28.3074 12.1377 28.3845C12.1242 28.5803 12.1004 28.6824 12.0652 28.6897C12.0611 29.9991 11.9928 30.6793 11.8592 30.7303C12.0114 32.7022 12.0238 33.7012 11.8975 33.7282C11.9079 33.7709 11.9462 33.8314 12.0124 33.9084C11.9834 34.1428 12.0238 34.8512 12.1346 36.0345L12.2888 36.0709C12.3623 37.8647 12.4151 38.8272 12.4451 38.9574C12.4752 39.0303 12.7308 39.1428 13.2133 39.2918C14.2381 39.7939 14.8251 40.0293 14.9752 39.997L15.3209 39.9251C15.4814 39.8907 15.5476 38.9949 15.5186 37.2366C15.472 37.2459 15.4441 37.2293 15.4337 37.1866L15.5031 37.172C15.471 36.7793 15.4886 36.0876 15.5559 35.0949C15.4286 33.2314 15.4224 32.2595 15.5362 32.1782C15.5041 26.8814 15.6159 28.2657 15.9834 23.0209C16.3168 22.9512 20.9513 21.9324 23.1988 21.3699C23.1884 21.3272 23.207 21.3001 23.2526 21.2897L23.2681 21.3553C25.1263 20.7834 26.1429 20.3824 26.3188 20.1512C26.2412 19.8262 26.0124 19.7032 25.6335 19.7834Z" fill="#8A1B61"/>
</svg>
