<svg width="24" height="24" viewBox="0 0 24 24" fill="none" xmlns="http://www.w3.org/2000/svg">
<path d="M7 9.25C7.41421 9.25 7.75 9.58579 7.75 10V17C7.75 17.4142 7.41421 17.75 7 17.75C6.58579 17.75 6.25 17.4142 6.25 17V10C6.25 9.58579 6.58579 9.25 7 9.25Z" fill="white"/>
<path d="M14 9.25C16.0711 9.25 17.75 10.9289 17.75 13V17C17.75 17.4142 17.4142 17.75 17 17.75C16.5858 17.75 16.25 17.4142 16.25 17V13C16.25 11.7573 15.2427 10.75 14 10.75C12.7573 10.75 11.75 11.7573 11.75 13V17C11.75 17.4142 11.4142 17.75 11 17.75C10.5858 17.75 10.25 17.4142 10.25 17V10C10.25 9.58579 10.5858 9.25 11 9.25C11.4142 9.25 11.75 9.58579 11.75 10C12.3768 9.52918 13.1557 9.25 14 9.25Z" fill="white"/>
<path d="M7.00781 6C7.5601 6 8.00781 6.44772 8.00781 7C8.00781 7.55229 7.5601 8 7.00781 8H6.99902C6.44674 8 5.99902 7.55229 5.99902 7C5.99902 6.44772 6.44674 6 6.99902 6H7.00781Z" fill="white"/>
<path fill-rule="evenodd" clip-rule="evenodd" d="M12 1.75C14.2177 1.75 15.9565 1.74854 17.3115 1.93066C18.6882 2.11575 19.7804 2.50315 20.6387 3.36133C21.4968 4.21953 21.8843 5.31182 22.0693 6.68848C22.2515 8.04349 22.25 9.78227 22.25 12C22.25 14.2177 22.2515 15.9565 22.0693 17.3115C21.8843 18.6882 21.4968 19.7804 20.6387 20.6387C19.7804 21.4968 18.6882 21.8843 17.3115 22.0693C15.9565 22.2515 14.2177 22.25 12 22.25C9.78227 22.25 8.04349 22.2515 6.68848 22.0693C5.31182 21.8843 4.21953 21.4968 3.36133 20.6387C2.50315 19.7804 2.11575 18.6882 1.93066 17.3115C1.74854 15.9565 1.75 14.2177 1.75 12C1.75 9.78227 1.74854 8.0435 1.93066 6.68848C2.11575 5.31182 2.50313 4.21953 3.36133 3.36133C4.21953 2.50313 5.31182 2.11575 6.68848 1.93066C8.0435 1.74854 9.78227 1.75 12 1.75ZM12 3.25C9.73963 3.25 8.1196 3.25137 6.8877 3.41699C5.67747 3.57972 4.9549 3.88886 4.42188 4.42188C3.88886 4.9549 3.57972 5.67747 3.41699 6.8877C3.25137 8.1196 3.25 9.73963 3.25 12C3.25 14.2604 3.25137 15.8804 3.41699 17.1123C3.57972 18.3225 3.88887 19.0451 4.42188 19.5781C4.9549 20.1111 5.67747 20.4203 6.8877 20.583C8.1196 20.7486 9.73963 20.75 12 20.75C14.2604 20.75 15.8804 20.7486 17.1123 20.583C18.3225 20.4203 19.0451 20.1111 19.5781 19.5781C20.1111 19.0451 20.4203 18.3225 20.583 17.1123C20.7486 15.8804 20.75 14.2604 20.75 12C20.75 9.73963 20.7486 8.1196 20.583 6.8877C20.4203 5.67747 20.1111 4.9549 19.5781 4.42188C19.0451 3.88887 18.3225 3.57972 17.1123 3.41699C15.8804 3.25137 14.2604 3.25 12 3.25Z" fill="white"/>
</svg>
