<svg width="24" height="24" viewBox="0 0 24 24" fill="none" xmlns="http://www.w3.org/2000/svg">
<path fill-rule="evenodd" clip-rule="evenodd" d="M17.4997 11.7503C20.3992 11.7503 22.7497 14.1008 22.7497 17.0003V17.5003C22.7495 18.7428 21.7422 19.7503 20.4997 19.7503C19.7794 19.7502 19.139 19.4107 18.7272 18.8841C18.3741 19.1146 17.9529 19.2503 17.4997 19.2503C16.2573 19.2502 15.2498 18.2427 15.2497 17.0003C15.2497 15.7578 16.2572 14.7505 17.4997 14.7503C18.7423 14.7503 19.7497 15.7577 19.7497 17.0003V17.5003C19.7498 17.9143 20.0857 18.2502 20.4997 18.2503C20.9138 18.2503 21.2495 17.9144 21.2497 17.5003V17.0003C21.2497 14.9292 19.5708 13.2503 17.4997 13.2503C15.4287 13.2505 13.7497 14.9293 13.7497 17.0003C13.7498 19.0712 15.4288 20.7502 17.4997 20.7503C17.9139 20.7503 18.2497 21.0861 18.2497 21.5003C18.2495 21.9144 17.9138 22.2503 17.4997 22.2503C14.6004 22.2502 12.2498 19.8996 12.2497 17.0003C12.2497 14.1009 14.6003 11.7505 17.4997 11.7503ZM17.4997 16.2503C17.0856 16.2505 16.7497 16.5862 16.7497 17.0003C16.7498 17.4143 17.0857 17.7502 17.4997 17.7503C17.9138 17.7503 18.2495 17.4144 18.2497 17.0003C18.2497 16.5861 17.9139 16.2503 17.4997 16.2503Z" fill="white"/>
<path fill-rule="evenodd" clip-rule="evenodd" d="M9.07977 1.78743C11.0326 1.73834 12.9667 1.73834 14.9196 1.78743C16.4713 1.82643 17.7178 1.85514 18.7136 2.02864C19.7429 2.20807 20.5791 2.55316 21.2858 3.26301C21.9896 3.96991 22.3316 4.79471 22.5075 5.80793C22.6771 6.78544 22.7019 8.00228 22.7341 9.51301C22.7437 9.96403 22.7489 10.1864 22.7497 10.4984C22.7506 10.9124 22.4157 11.2492 22.0016 11.2503C21.5877 11.2512 21.251 10.9162 21.2497 10.5023C21.2489 10.2076 21.2438 10.0014 21.2341 9.54524C21.205 8.18031 21.1824 7.17746 21.0788 6.38508L15.4567 9.57747C14.1713 10.3072 13.1158 10.7503 11.9997 10.7503C10.8836 10.7502 9.82816 10.3072 8.54266 9.57747L2.92059 6.38508C2.81708 7.17747 2.7944 8.17965 2.76532 9.54426C2.74453 10.5198 2.74452 11.4906 2.76532 12.4661C2.79848 14.0221 2.82363 15.1066 2.96942 15.9466C3.10905 16.7506 3.34889 17.2607 3.77606 17.6898C4.20024 18.1158 4.71652 18.3591 5.54364 18.5032C6.40469 18.6533 7.52061 18.6838 9.11688 18.7239C9.58154 18.7357 10.0464 18.7443 10.5095 18.7503C10.9236 18.7557 11.2551 19.0959 11.2497 19.5101C11.2441 19.9241 10.904 20.2557 10.4899 20.2503C10.0208 20.2442 9.55068 20.2348 9.07977 20.223C7.52836 20.184 6.28248 20.1552 5.2868 19.9818C4.25755 19.8024 3.42024 19.4579 2.71356 18.7484C2.00978 18.0415 1.66775 17.2156 1.49188 16.2025C1.32225 15.225 1.29751 14.0081 1.26532 12.4974C1.24408 11.5007 1.24408 10.5096 1.26532 9.51301C1.29752 8.00234 1.32229 6.78541 1.49188 5.80793C1.6677 4.79485 2.00995 3.96986 2.71356 3.26301C3.42032 2.55315 4.25738 2.20806 5.2868 2.02864C6.28247 1.85521 7.52838 1.82643 9.07977 1.78743ZM14.8825 3.28645C12.9547 3.23799 11.0447 3.23799 9.11688 3.28645C7.52062 3.32658 6.40469 3.35711 5.54364 3.50715C4.71658 3.65134 4.20023 3.89464 3.77606 4.32063C3.60218 4.49532 3.46012 4.68383 3.34246 4.89973L9.28289 8.27278C10.5226 8.9766 11.2919 9.25024 11.9997 9.25032C12.7075 9.25032 13.4768 8.97656 14.7165 8.27278L20.6559 4.89973C20.5383 4.68394 20.3971 4.49519 20.2233 4.32063C19.7991 3.89456 19.283 3.65134 18.4557 3.50715C17.5947 3.35713 16.4788 3.32658 14.8825 3.28645Z" fill="white"/>
</svg>
